<svg xmlns="http://www.w3.org/2000/svg" version="1.1" xmlns:xlink="http://www.w3.org/1999/xlink" xmlns:svgjs="http://svgjs.com/svgjs" width="30" height="30"><svg version="1.1" xmlns="http://www.w3.org/2000/svg" xmlns:xlink="http://www.w3.org/1999/xlink" x="0px" y="0px" viewBox="0 0 30 30" style="enable-background:new 0 0 30 30;" xml:space="preserve">
<style type="text/css">
	.st0{fill:#F15A2B;}
	.st1{fill:#F6A11E;}
	.st2{fill:#FED20B;}
	.st3{fill:#FFFFFF;}
</style>
<g id="SvgjsG1002">
</g>
<g id="SvgjsG1001">
</g>
<g id="SvgjsG1000">
	<g>
		<g>
			<path class="st1" d="M27.05,15.45l-2.04,1.63l0.18,0.9c-5.4,2.68-6.34-4.76-4.16-7.37s3.69-0.24,3.69-0.24l-1.06,1.03
				c1.6,2.04,2.37,2.07,2.37,2.07l3.75-3.59L27.64,7.7l-0.98,0.57c-4.96-3.87-8.4,0.99-8.4,0.99c-1.91-3.49-5.83-1.67-5.83-1.67
				l-0.94,0.35L11,7.38c0,0-0.62-0.49-0.71-0.61c-0.09-0.13-0.8,0.7-0.8,0.7c-0.63-0.59-1.82-0.68-2.63-0.7
				C5.09,6.72,3.3,7.33,2.06,8.62c-2.49,2.6-2.49,6.71-1.09,9.82c1.07,2.39,3.11,4,5.8,3.68c0.87-0.1,1.72-0.37,2.52-0.73
				c0.07-0.03,1.01-0.56,1.03-0.55c0,0,0.97,0.9,0.97,0.9c4.63-0.47,6.71-2.35,6.71-2.35l0.14,0.28c0.81,1.17,2.24,2.19,4.82,2.33
				c2.58,0.14,4.92-1.48,4.92-1.48l0.51,0.39l1.76-1.55C28.96,16.95,27.05,15.45,27.05,15.45z M9.52,15.21
				c-0.03-0.12-1.97,1.45-1.97,1.45l0.98,1.46C8.1,18.9,6.31,19,5.82,18.92c-0.49-0.08-3.47-1.5-2.56-6.17
				c0.91-4.66,3.83-3.21,3.83-3.21L6.78,11l2.36,1.49c0,0,1-1.77,1-1.89c0,0,0.12,5.69,0.11,5.84C10.26,16.59,9.54,15.33,9.52,15.21
				z M12.77,18.89l0.39-8.99c0,0,3.25-0.63,3.71,3.08C17.54,18.51,12.77,18.89,12.77,18.89z"></path>
		</g>
	</g>
</g>
</svg><style>@media (prefers-color-scheme: light) { :root { filter: none; } }
</style></svg>